<svg width="60" height="20" viewBox="0 0 60 20" fill="none" xmlns="http://www.w3.org/2000/svg">
<g clip-path="url(#clip0_0_2443)">
<mask id="mask0_0_2443" style="mask-type:luminance" maskUnits="userSpaceOnUse" x="0" y="-1" width="60" height="21">
<path d="M59.481 -0.0078125H0.951172V19.5569H59.481V-0.0078125Z" fill="white"/>
</mask>
<g mask="url(#mask0_0_2443)">
<path d="M54.8202 -0.00774891H5.61476C5.4354 -0.00774891 5.25819 -0.00774891 5.07931 -0.00677068C4.92956 -0.00579244 4.78101 -0.00295066 4.62983 -0.000558856C4.30139 0.00330606 3.97373 0.0322004 3.64969 0.0858733C3.3261 0.140714 3.01264 0.244106 2.71993 0.39255C2.42758 0.542252 2.16044 0.736769 1.92822 0.969057C1.69478 1.20068 1.50019 1.46842 1.35193 1.76196C1.20326 2.05491 1.10018 2.36884 1.04623 2.69291C0.991774 3.01656 0.96247 3.34395 0.958582 3.67212C0.954043 3.82209 0.953564 3.97255 0.951172 4.12253V15.4281C0.953564 15.58 0.954043 15.7271 0.958582 15.8791C0.962471 16.2072 0.991775 16.5346 1.04623 16.8582C1.10003 17.1825 1.20312 17.4966 1.35193 17.7897C1.50012 18.0822 1.69474 18.3489 1.92822 18.5792C2.15956 18.8126 2.42687 19.0072 2.71993 19.1558C3.01264 19.3046 3.32606 19.4086 3.64969 19.4643C3.97379 19.5175 4.30142 19.5464 4.62983 19.5508C4.78101 19.5541 4.92956 19.556 5.07931 19.556C5.25819 19.557 5.43541 19.557 5.61476 19.557H54.8202C54.9958 19.557 55.1743 19.557 55.3504 19.556C55.4991 19.556 55.6522 19.5541 55.8014 19.5508C56.1291 19.5467 56.4558 19.5178 56.7796 19.4643C57.1039 19.4082 57.4189 19.3042 57.7129 19.1558C58.0053 19.0071 58.2724 18.8125 58.5038 18.5792C58.7366 18.348 58.9317 18.0815 59.0819 17.7897C59.2296 17.4964 59.3313 17.1823 59.3847 16.8582C59.439 16.5345 59.4693 16.2073 59.4751 15.8791C59.4771 15.7271 59.4771 15.58 59.4771 15.4281C59.481 15.2504 59.481 15.0737 59.481 14.8931V4.65655C59.481 4.47743 59.481 4.29974 59.4771 4.12253C59.4771 3.97255 59.4771 3.82209 59.4751 3.67211C59.4693 3.3439 59.439 3.01658 59.3847 2.69289C59.3313 2.36902 59.2291 2.05511 59.0819 1.76194C58.7796 1.17357 58.3013 0.694637 57.7129 0.392506C57.4189 0.244424 57.1039 0.141061 56.7796 0.0858293C56.4563 0.0319199 56.1291 0.00301547 55.8014 -0.000627333C55.6522 -0.00301425 55.4991 -0.00588048 55.3504 -0.00683426C55.1743 -0.0078125 54.9958 -0.00774891 54.8202 -0.00774891Z" fill="#A6A6A6"/>
<path d="M5.08242 19.1306C4.9334 19.1306 4.78797 19.1287 4.64012 19.1254C4.33382 19.1214 4.02824 19.0947 3.72589 19.0456C3.44396 18.9971 3.17084 18.9068 2.91555 18.7777C2.66259 18.6496 2.43188 18.4817 2.23225 18.2804C2.02972 18.0815 1.86111 17.8507 1.7331 17.5974C1.60367 17.3423 1.5141 17.069 1.46751 16.7868C1.41719 16.4836 1.38996 16.177 1.38607 15.8697C1.38297 15.7665 1.37891 15.4231 1.37891 15.4231V4.12418C1.37891 4.12418 1.38323 3.786 1.38609 3.68664C1.38982 3.37981 1.41689 3.0737 1.46706 2.77098C1.51374 2.48803 1.60337 2.21388 1.73287 1.95801C1.86042 1.7048 2.02809 1.4739 2.2294 1.27425C2.43047 1.07271 2.66192 0.90395 2.91531 0.774143C3.17001 0.645446 3.44261 0.555761 3.72398 0.508092C4.02732 0.458479 4.33396 0.431655 4.64132 0.427847L5.08266 0.421875H55.3487L55.7952 0.428087C56.1 0.431706 56.4037 0.45829 56.704 0.507613C56.9882 0.555884 57.2641 0.646194 57.5213 0.775576C58.029 1.03718 58.4424 1.45106 58.7026 1.95921C58.8302 2.21331 58.9183 2.48523 58.9647 2.76572C59.0151 3.07093 59.0435 3.37945 59.0494 3.68879C59.0508 3.82731 59.0508 3.9761 59.0508 4.12418C59.0547 4.3076 59.0547 4.48218 59.0547 4.65819V14.8948C59.0547 15.0725 59.0547 15.2459 59.0508 15.4207C59.0508 15.5797 59.0508 15.7255 59.0489 15.8754C59.0435 16.1793 59.0156 16.4823 58.9652 16.782C58.9197 17.0662 58.8307 17.3417 58.7011 17.5988C58.5725 17.8495 58.4047 18.0782 58.2046 18.2766C58.0046 18.479 57.7737 18.6478 57.5199 18.7767C57.2631 18.9068 56.9882 18.9975 56.704 19.0456C56.4018 19.095 56.0961 19.1217 55.7899 19.1254C55.6466 19.1287 55.4969 19.1306 55.3511 19.1306L54.8209 19.1316L5.08242 19.1306Z" fill="white"/>
<path d="M13.0638 9.91532C13.069 9.50705 13.1775 9.10676 13.379 8.7517C13.5806 8.39661 13.8686 8.09829 14.2165 7.88445C13.9955 7.56892 13.704 7.3092 13.3651 7.12602C13.0262 6.9428 12.6493 6.84116 12.2643 6.82908C11.443 6.7429 10.6467 7.32059 10.2281 7.32059C9.80148 7.32059 9.15707 6.83764 8.46316 6.85192C8.01429 6.86645 7.57688 6.99694 7.19346 7.23079C6.81004 7.46459 6.49372 7.79377 6.27538 8.18619C5.32941 9.82395 6.03503 12.231 6.94117 13.5548C7.39453 14.203 7.92439 14.9272 8.61767 14.9015C9.29613 14.8733 9.54949 14.4689 10.3684 14.4689C11.1798 14.4689 11.4175 14.9015 12.1248 14.8852C12.8528 14.8733 13.3115 14.234 13.749 13.5796C14.0747 13.1177 14.3254 12.6072 14.4916 12.067C14.0687 11.8881 13.7078 11.5887 13.4539 11.2061C13.2 10.8234 13.0643 10.3745 13.0638 9.91532Z" fill="black"/>
<path d="M11.7305 5.96512C12.1275 5.48862 12.323 4.87618 12.2756 4.25781C11.6692 4.32151 11.1091 4.61134 10.7068 5.06955C10.5101 5.29342 10.3594 5.55382 10.2634 5.83595C10.1674 6.11807 10.128 6.41634 10.1474 6.71367C10.4507 6.7168 10.7508 6.65106 11.025 6.5214C11.2992 6.39173 11.5404 6.20156 11.7305 5.96512Z" fill="black"/>
<path d="M21.6409 13.2681H19.3257L18.7697 14.9098H17.7891L19.982 8.83594H21.0008L23.1937 14.9098H22.1964L21.6409 13.2681ZM19.5654 12.5105H21.4006L20.4959 9.84621H20.4707L19.5654 12.5105Z" fill="black"/>
<path d="M27.9292 12.6991C27.9292 14.0752 27.1926 14.9593 26.0811 14.9593C25.7996 14.9741 25.5196 14.9092 25.2731 14.7722C25.0267 14.6351 24.8239 14.4315 24.6878 14.1846H24.6668V16.378H23.7578V10.4846H24.6377V11.2212H24.6544C24.7967 10.9754 25.003 10.7729 25.2512 10.635C25.4996 10.4972 25.7806 10.4292 26.0644 10.4383C27.1883 10.4383 27.9292 11.3267 27.9292 12.6991ZM26.9949 12.6991C26.9949 11.8025 26.5316 11.2131 25.8246 11.2131C25.1301 11.2131 24.663 11.8149 24.663 12.6991C24.663 13.5913 25.1301 14.1889 25.8246 14.1889C26.5316 14.1889 26.9949 13.6037 26.9949 12.6991Z" fill="black"/>
<path d="M32.8062 12.6991C32.8062 14.0752 32.0696 14.9593 30.9581 14.9593C30.6765 14.9741 30.3965 14.9092 30.1501 14.7721C29.9037 14.6351 29.7008 14.4315 29.5648 14.1846H29.5437V16.378H28.6348V10.4846H29.5146V11.2212H29.5313C29.6737 10.9754 29.8799 10.7728 30.1282 10.635C30.3765 10.4972 30.6575 10.4292 30.9414 10.4383C32.0653 10.4383 32.8062 11.3267 32.8062 12.6991ZM31.8718 12.6991C31.8718 11.8025 31.4086 11.2131 30.7016 11.2131C30.0071 11.2131 29.5399 11.8149 29.5399 12.6991C29.5399 13.5913 30.0071 14.1889 30.7016 14.1889C31.4086 14.1889 31.8718 13.6037 31.8718 12.6991Z" fill="black"/>
<path d="M36.0262 13.2172C36.0936 13.8195 36.6787 14.215 37.4783 14.215C38.2445 14.215 38.7956 13.8195 38.7956 13.2764C38.7956 12.805 38.4632 12.5226 37.676 12.3292L36.8889 12.1396C35.7735 11.8702 35.2557 11.3486 35.2557 10.5022C35.2557 9.45421 36.169 8.73438 37.4659 8.73438C38.7493 8.73438 39.6291 9.45421 39.6588 10.5022H38.7412C38.6863 9.89603 38.1852 9.53017 37.453 9.53017C36.7207 9.53017 36.2197 9.90034 36.2197 10.4391C36.2197 10.8685 36.5397 11.1212 37.3226 11.3147L37.9917 11.479C39.238 11.7737 39.7557 12.2743 39.7557 13.1627C39.7557 14.299 38.8506 15.0107 37.4109 15.0107C36.0639 15.0107 35.1545 14.3158 35.0957 13.2171L36.0262 13.2172Z" fill="black"/>
<path d="M41.7193 9.42944V10.4774H42.5614V11.1973H41.7193V13.6386C41.7193 14.0178 41.8879 14.1945 42.2581 14.1945C42.3581 14.1928 42.4578 14.1858 42.5571 14.1735V14.889C42.3906 14.9201 42.2215 14.9342 42.0522 14.931C41.1557 14.931 40.806 14.5943 40.806 13.7355V11.1973H40.1621V10.4774H40.806V9.42944H41.7193Z" fill="black"/>
<path d="M43.0469 12.6907C43.0469 11.2974 43.8675 10.4219 45.1471 10.4219C46.431 10.4219 47.2479 11.2974 47.2479 12.6907C47.2479 14.0879 46.4353 14.9596 45.1471 14.9596C43.8593 14.9596 43.0469 14.0879 43.0469 12.6907ZM46.3217 12.6907C46.3217 11.7349 45.8837 11.1708 45.1471 11.1708C44.4106 11.1708 43.973 11.7392 43.973 12.6907C43.973 13.6503 44.4106 14.2101 45.1471 14.2101C45.8837 14.2101 46.3217 13.6503 46.3217 12.6907Z" fill="black"/>
<path d="M47.998 10.4846H48.865V11.2383H48.886C48.9447 11.0029 49.0826 10.7949 49.2766 10.6492C49.4705 10.5035 49.7087 10.429 49.9509 10.4383C50.0561 10.4379 50.1603 10.4493 50.2625 10.4722V11.3224C50.1305 11.282 49.9925 11.2634 49.8542 11.2675C49.7221 11.2621 49.5905 11.2854 49.4683 11.3357C49.3461 11.386 49.2362 11.4622 49.1463 11.559C49.0563 11.6558 48.9883 11.7709 48.947 11.8965C48.9057 12.022 48.8921 12.155 48.907 12.2863V14.9129H47.998V10.4846Z" fill="black"/>
<path d="M54.4536 13.604C54.3313 14.4079 53.5483 14.9596 52.5465 14.9596C51.2582 14.9596 50.459 14.0964 50.459 12.7117C50.459 11.3227 51.2626 10.4219 52.5084 10.4219C53.7336 10.4219 54.504 11.2635 54.504 12.6062V12.9176H51.3766V12.9725C51.3619 13.1355 51.3824 13.2997 51.4362 13.4542C51.49 13.6086 51.5761 13.7499 51.6891 13.8685C51.8016 13.9872 51.9381 14.0805 52.0897 14.1423C52.2413 14.204 52.4042 14.2328 52.5676 14.2268C52.7823 14.247 52.998 14.1972 53.1824 14.085C53.3663 13.9728 53.5096 13.8041 53.5903 13.604H54.4536ZM51.3805 12.2823H53.5947C53.6025 12.1358 53.5805 11.9892 53.5292 11.8516C53.4783 11.714 53.3991 11.5886 53.2968 11.483C53.1951 11.3775 53.0723 11.2942 52.9369 11.2383C52.8009 11.1825 52.6551 11.1553 52.5084 11.1584C52.3602 11.1575 52.2135 11.186 52.0765 11.2421C51.9395 11.2982 51.8153 11.3809 51.7101 11.4854C51.6055 11.5899 51.5223 11.7141 51.4656 11.8509C51.4093 11.9876 51.3805 12.1343 51.3805 12.2823Z" fill="black"/>
<path d="M19.4526 4.26112C19.6432 4.24745 19.8344 4.27624 20.0125 4.34541C20.1906 4.41459 20.3511 4.52243 20.4825 4.66116C20.6139 4.79988 20.7128 4.96602 20.7722 5.14763C20.8316 5.32924 20.8499 5.52175 20.8259 5.71129C20.8259 6.64364 20.3219 7.17962 19.4526 7.17962H18.3984V4.26112H19.4526ZM18.8517 6.76685H19.402C19.5382 6.77502 19.6745 6.75267 19.8009 6.70151C19.9273 6.65035 20.0408 6.57165 20.133 6.47108C20.2252 6.37052 20.2938 6.25069 20.3338 6.12029C20.3739 5.98989 20.3844 5.8522 20.3644 5.71721C20.3829 5.5828 20.3714 5.44594 20.3307 5.31652C20.2901 5.18705 20.2213 5.06819 20.1293 4.96846C20.0373 4.86871 19.9244 4.79054 19.7987 4.73956C19.6729 4.68857 19.5374 4.66604 19.402 4.67355H18.8517V6.76685Z" fill="black"/>
<path d="M21.3389 6.08023C21.325 5.9355 21.3416 5.78949 21.3875 5.65151C21.4334 5.51353 21.5076 5.38671 21.6054 5.2791C21.7032 5.17149 21.8224 5.08551 21.9554 5.02672C22.0884 4.96787 22.2322 4.9375 22.3775 4.9375C22.5229 4.9375 22.6667 4.96787 22.7997 5.02672C22.9327 5.08551 23.0519 5.17149 23.1497 5.2791C23.2475 5.38671 23.3217 5.51353 23.3676 5.65151C23.4135 5.78949 23.4301 5.9355 23.4162 6.08023C23.4303 6.22515 23.414 6.37135 23.3682 6.50957C23.3224 6.64775 23.2482 6.77482 23.1504 6.88263C23.0526 6.99043 22.9333 7.07661 22.8002 7.13555C22.6671 7.19449 22.5231 7.22496 22.3775 7.22496C22.232 7.22496 22.088 7.19449 21.9549 7.13555C21.8218 7.07661 21.7025 6.99043 21.6047 6.88263C21.5069 6.77482 21.4327 6.64775 21.3869 6.50957C21.3411 6.37135 21.3248 6.22515 21.3389 6.08023ZM22.9691 6.08023C22.9691 5.60285 22.7546 5.32366 22.3783 5.32366C22.0004 5.32366 21.7879 5.60285 21.7879 6.08028C21.7879 6.56147 22.0005 6.83851 22.3783 6.83851C22.7546 6.83851 22.9691 6.55956 22.9691 6.08023Z" fill="black"/>
<path d="M26.176 7.17901H25.7251L25.2699 5.5569H25.2355L24.7822 7.17901H24.3356L23.7285 4.97656H24.1694L24.5639 6.65717H24.5965L25.0492 4.97656H25.4663L25.9191 6.65717H25.9535L26.3461 4.97656H26.7808L26.176 7.17901Z" fill="black"/>
<path d="M27.291 4.98217H27.7095V5.33208H27.7419C27.797 5.20638 27.89 5.10107 28.0078 5.03074C28.1256 4.96035 28.2624 4.92856 28.3992 4.93966C28.5063 4.93159 28.6139 4.94778 28.714 4.98696C28.8141 5.02614 28.9041 5.08733 28.9773 5.16598C29.0505 5.24468 29.1051 5.33879 29.1369 5.4414C29.1688 5.54407 29.1773 5.65255 29.1615 5.75884V7.18462H28.7269V5.86801C28.7269 5.51404 28.573 5.33805 28.2516 5.33805C28.1788 5.33463 28.1062 5.34705 28.0387 5.37434C27.9711 5.40164 27.9103 5.44321 27.8604 5.49623C27.8104 5.54925 27.7725 5.61245 27.7493 5.68146C27.726 5.75052 27.718 5.82375 27.7257 5.89618V7.18467H27.291V4.98217Z" fill="black"/>
<path d="M29.8555 4.11719H30.2901V7.17942H29.8555V4.11719Z" fill="black"/>
<path d="M30.8936 6.08028C30.8797 5.93555 30.8963 5.78949 30.9422 5.65151C30.9881 5.51353 31.0624 5.38671 31.1601 5.2791C31.258 5.17149 31.3772 5.08556 31.5102 5.02672C31.6431 4.96787 31.7869 4.9375 31.9324 4.9375C32.0778 4.9375 32.2216 4.96787 32.3545 5.02672C32.4875 5.08556 32.6067 5.17149 32.7045 5.2791C32.8024 5.38671 32.8766 5.51353 32.9225 5.65151C32.9684 5.78949 32.9849 5.93555 32.9711 6.08028C32.9852 6.2252 32.9689 6.3714 32.9231 6.50962C32.8772 6.6478 32.803 6.77487 32.7052 6.88267C32.6074 6.99048 32.4881 7.07661 32.355 7.1356C32.2219 7.19454 32.0779 7.22501 31.9324 7.22501C31.7867 7.22501 31.6428 7.19454 31.5097 7.1356C31.3766 7.07661 31.2573 6.99048 31.1595 6.88267C31.0616 6.77487 30.9874 6.6478 30.9416 6.50962C30.8959 6.3714 30.8795 6.2252 30.8936 6.08028ZM32.5238 6.08028C32.5238 5.6029 32.3093 5.32371 31.9329 5.32371C31.5551 5.32371 31.3426 5.6029 31.3426 6.08028C31.3426 6.56152 31.5552 6.83856 31.9329 6.83856C32.3093 6.83856 32.5238 6.55961 32.5238 6.08028Z" fill="black"/>
<path d="M33.4297 6.55961C33.4297 6.16313 33.7249 5.93457 34.2489 5.90209L34.8454 5.8677V5.67758C34.8454 5.44501 34.6917 5.31363 34.3945 5.31363C34.1519 5.31363 33.9838 5.4027 33.9355 5.55844H33.5147C33.5591 5.18015 33.915 4.9375 34.4146 4.9375C34.9668 4.9375 35.2782 5.21238 35.2782 5.67758V7.18245H34.8598V6.87294H34.8254C34.7556 6.98397 34.6576 7.07446 34.5414 7.13521C34.4251 7.196 34.2948 7.22481 34.1639 7.21875C34.0714 7.22838 33.9779 7.2185 33.8895 7.18979C33.8011 7.16108 33.7197 7.11417 33.6505 7.05206C33.5814 6.98994 33.5259 6.91403 33.4879 6.82921C33.4499 6.7444 33.43 6.65254 33.4297 6.55961ZM34.8454 6.3714V6.18725L34.3076 6.22163C34.0043 6.24193 33.8667 6.34513 33.8667 6.53931C33.8667 6.7375 34.0387 6.85289 34.2751 6.85289C34.3444 6.85988 34.4144 6.85289 34.4809 6.83229C34.5475 6.8117 34.6091 6.77795 34.6624 6.73305C34.7156 6.6881 34.7592 6.63293 34.7907 6.57081C34.8221 6.50869 34.8407 6.44085 34.8454 6.3714Z" fill="black"/>
<path d="M35.8496 6.07725C35.8496 5.38133 36.2074 4.94044 36.7639 4.94044C36.9015 4.93408 37.0381 4.96705 37.1577 5.03547C37.2773 5.1039 37.375 5.20495 37.4392 5.32684H37.4718V4.11719H37.9064V7.17943H37.4899V6.83147H37.4555C37.3862 6.95252 37.2852 7.0523 37.1633 7.12005C37.0413 7.18779 36.9032 7.22085 36.7639 7.21572C36.2036 7.21577 35.8496 6.77488 35.8496 6.07725ZM36.2986 6.07725C36.2986 6.5444 36.5188 6.8255 36.8871 6.8255C37.2535 6.8255 37.4799 6.54034 37.4799 6.07915C37.4799 5.62012 37.2511 5.3309 36.8871 5.3309C36.5212 5.3309 36.2986 5.6139 36.2986 6.07725Z" fill="black"/>
<path d="M39.7041 6.08023C39.6903 5.9355 39.7069 5.78949 39.7527 5.65151C39.7986 5.51353 39.8729 5.38671 39.9706 5.2791C40.0685 5.17149 40.1877 5.08551 40.3206 5.02672C40.4536 4.96787 40.5974 4.9375 40.7428 4.9375C40.8882 4.9375 41.032 4.96787 41.165 5.02672C41.2979 5.08551 41.4171 5.17149 41.5149 5.2791C41.6127 5.38671 41.687 5.51353 41.7328 5.65151C41.7787 5.78949 41.7953 5.9355 41.7815 6.08023C41.7955 6.22515 41.7792 6.37135 41.7334 6.50957C41.6876 6.64775 41.6134 6.77482 41.5156 6.88263C41.4178 6.99043 41.2985 7.07661 41.1654 7.13555C41.0323 7.19449 40.8884 7.22496 40.7428 7.22496C40.5972 7.22496 40.4533 7.19449 40.3202 7.13555C40.187 7.07661 40.0678 6.99043 39.97 6.88263C39.8721 6.77482 39.7979 6.64775 39.7522 6.50957C39.7064 6.37135 39.69 6.22515 39.7041 6.08023ZM41.3344 6.08023C41.3344 5.60285 41.1199 5.32366 40.7435 5.32366C40.3657 5.32366 40.1531 5.60285 40.1531 6.08028C40.1531 6.56147 40.3657 6.83851 40.7435 6.83851C41.1199 6.83851 41.3344 6.55956 41.3344 6.08023Z" fill="black"/>
<path d="M42.3652 4.98217H42.7837V5.33208H42.8162C42.8713 5.20638 42.9642 5.10107 43.082 5.03074C43.1998 4.96035 43.3367 4.92856 43.4734 4.93966C43.5806 4.93159 43.6882 4.94778 43.7883 4.98696C43.8883 5.02614 43.9783 5.08733 44.0515 5.16598C44.1247 5.24468 44.1793 5.33879 44.2112 5.4414C44.2431 5.54407 44.2515 5.65255 44.2358 5.75884V7.18462H43.8011V5.86801C43.8011 5.51404 43.6473 5.33805 43.3258 5.33805C43.2531 5.33463 43.1804 5.34705 43.1129 5.37434C43.0454 5.40164 42.9846 5.44321 42.9346 5.49623C42.8846 5.54925 42.8468 5.61245 42.8235 5.68146C42.8003 5.75052 42.7922 5.82375 42.7999 5.89618V7.18467H42.3652V4.98217Z" fill="black"/>
<path d="M46.693 4.4375V4.99588H47.1702V5.36199H46.693V6.49454C46.693 6.72521 46.7881 6.82626 47.0045 6.82626C47.0598 6.82607 47.1152 6.82274 47.1702 6.81623V7.17828C47.0921 7.19222 47.013 7.19965 46.9337 7.20049C46.4503 7.20049 46.2579 7.03042 46.2579 6.60582V5.36199H45.9082V4.99583H46.2579V4.4375H46.693Z" fill="black"/>
<path d="M47.7617 4.11719H48.1925V5.3309H48.227C48.2847 5.20407 48.3802 5.09813 48.5004 5.02755C48.6206 4.95692 48.7596 4.92508 48.8985 4.93638C49.0051 4.93056 49.1117 4.94836 49.2106 4.98847C49.3096 5.02862 49.3984 5.09011 49.4709 5.16851C49.5433 5.24692 49.5976 5.34039 49.6298 5.44217C49.6619 5.54401 49.6712 5.65162 49.657 5.75746V7.17942H49.2219V5.86467C49.2219 5.5129 49.0581 5.33471 48.751 5.33471C48.6762 5.3286 48.6011 5.33887 48.5308 5.3648C48.4605 5.39077 48.3966 5.43176 48.3438 5.48497C48.291 5.53814 48.2504 5.60221 48.225 5.67274C48.1995 5.74323 48.1897 5.81845 48.1964 5.89309V7.17942H47.7617V4.11719Z" fill="black"/>
<path d="M52.1921 6.58787C52.1329 6.78914 52.0052 6.96327 51.8306 7.07973C51.656 7.19624 51.4462 7.24764 51.2378 7.22504C51.0926 7.22886 50.9483 7.20108 50.8152 7.14361C50.6817 7.08609 50.5628 7.00029 50.466 6.89215C50.3691 6.78396 50.2972 6.65605 50.2547 6.51724C50.2121 6.37838 50.2004 6.23204 50.2205 6.08824C50.2009 5.94399 50.2131 5.79731 50.2552 5.65806C50.2977 5.5188 50.3691 5.39031 50.4655 5.28119C50.5619 5.17207 50.6807 5.08491 50.8133 5.02563C50.9463 4.96634 51.0906 4.93631 51.2359 4.93754C51.8487 4.93754 52.2185 5.35622 52.2185 6.04783V6.19951H50.6631V6.22387C50.6563 6.30472 50.6665 6.38606 50.6929 6.46275C50.7194 6.5394 50.7619 6.60968 50.8167 6.66911C50.872 6.72849 50.939 6.77569 51.0138 6.80768C51.0881 6.83967 51.1689 6.85576 51.2496 6.85483C51.3537 6.86735 51.4589 6.84862 51.5523 6.80108C51.6457 6.75353 51.7225 6.67929 51.7739 6.58782L52.1921 6.58787ZM50.6631 5.87806H51.7759C51.7812 5.80416 51.771 5.72991 51.746 5.66006C51.7211 5.59026 51.6819 5.52643 51.6311 5.47273C51.5797 5.41897 51.5181 5.37652 51.4496 5.3481C51.3811 5.31963 51.3078 5.30579 51.2334 5.30751C51.1581 5.30658 51.0837 5.32066 51.0143 5.34903C50.9443 5.37735 50.8813 5.41937 50.8279 5.47253C50.7751 5.5257 50.7331 5.58899 50.7047 5.65864C50.6763 5.72829 50.6621 5.80288 50.6631 5.87806Z" fill="black"/>
</g>
</g>
<defs>
<clipPath id="clip0_0_2443">
<rect width="58.6942" height="19.5647" fill="white" transform="translate(0.947266)"/>
</clipPath>
</defs>
</svg>
