<svg width="67" height="20" viewBox="0 0 67 20" fill="none" xmlns="http://www.w3.org/2000/svg">
<g clip-path="url(#clip0_0_2473)">
<path d="M63.6072 0H2.46738C1.11672 0 0.0217896 1.09493 0.0217896 2.44559V17.1191C0.0217896 18.4698 1.11672 19.5647 2.46738 19.5647H63.6072C64.9576 19.5647 66.0528 18.4698 66.0528 17.1191V2.44559C66.0528 1.09493 64.9576 0 63.6072 0Z" fill="white"/>
<path d="M63.6072 0.391295C64.152 0.391295 64.6744 0.607729 65.0598 0.992984C65.4453 1.37824 65.6615 1.90076 65.6615 2.44559V17.1191C65.6615 17.664 65.4453 18.1865 65.0598 18.5717C64.6744 18.957 64.152 19.1734 63.6072 19.1734H2.46738C1.92255 19.1734 1.40003 18.957 1.01477 18.5717C0.629519 18.1865 0.413084 17.664 0.413084 17.1191V2.44559C0.413084 1.90076 0.629519 1.37824 1.01477 0.992984C1.40003 0.607729 1.92255 0.391295 2.46738 0.391295H63.6072ZM63.6072 0H2.46738C1.81877 0 1.19673 0.25766 0.738089 0.716299C0.279449 1.17494 0.0217896 1.79698 0.0217896 2.44559V17.1191C0.0217896 17.7678 0.279449 18.3898 0.738089 18.8484C1.19673 19.3071 1.81877 19.5647 2.46738 19.5647H63.6072C64.2557 19.5647 64.8779 19.3071 65.3367 18.8484C65.795 18.3898 66.0528 17.7678 66.0528 17.1191V2.44559C66.0528 1.79698 65.795 1.17494 65.3367 0.716299C64.8779 0.25766 64.2557 0 63.6072 0Z" fill="#A6A6A6"/>
<path d="M23.2139 5.00765C23.2219 5.18701 23.1935 5.36617 23.1305 5.53428C23.0675 5.70239 22.971 5.85602 22.847 5.98588C22.7081 6.12934 22.5404 6.24184 22.355 6.31599C22.1696 6.39019 21.9705 6.42433 21.771 6.41631C21.5703 6.42076 21.3708 6.38402 21.1849 6.30831C20.9989 6.23259 20.8305 6.11951 20.69 5.9761C20.5451 5.83548 20.4308 5.66644 20.3542 5.4796C20.2776 5.29275 20.2404 5.09212 20.2449 4.89024C20.2397 4.68755 20.2766 4.48598 20.3532 4.29825C20.4298 4.11052 20.5445 3.9407 20.69 3.79951C20.9079 3.58659 21.1839 3.44281 21.4833 3.38625C21.7826 3.32969 22.092 3.36285 22.3726 3.48158C22.549 3.55409 22.7063 3.66622 22.8324 3.80929L22.5731 4.06852C22.476 3.95152 22.3529 3.85876 22.2137 3.79763C22.0744 3.7365 21.9228 3.70867 21.771 3.71636C21.6182 3.71561 21.4668 3.74572 21.326 3.80488C21.1851 3.86405 21.0576 3.95105 20.9512 4.06067C20.8448 4.17029 20.7616 4.30027 20.7067 4.44282C20.6517 4.58537 20.626 4.73755 20.6313 4.89024C20.6281 5.11824 20.6925 5.34206 20.8164 5.5335C20.9403 5.72494 21.118 5.87544 21.3273 5.96593C21.5366 6.05646 21.768 6.08297 21.9923 6.04213C22.2167 6.00129 22.4238 5.89491 22.5878 5.73643C22.7386 5.57307 22.827 5.36177 22.8373 5.13971H21.771V4.78753H23.1943C23.2053 4.86044 23.2118 4.93394 23.2139 5.00765Z" fill="black" stroke="black" stroke-width="0.0978237" stroke-miterlimit="10"/>
<path d="M25.4563 3.77601H24.1357V4.70534H25.339V5.0575H24.1357V5.98682H25.4563V6.34877H23.7542V3.41406H25.4563V3.77601Z" fill="black" stroke="black" stroke-width="0.0978237" stroke-miterlimit="10"/>
<path d="M27.058 6.34877H26.6814V3.77601H25.8597V3.41406H27.8993V3.77601H27.058V6.34877Z" fill="black" stroke="black" stroke-width="0.0978237" stroke-miterlimit="10"/>
<path d="M29.3382 6.34877V3.41406H29.7148V6.34877H29.3382Z" fill="black" stroke="black" stroke-width="0.0978237" stroke-miterlimit="10"/>
<path d="M31.3861 6.34877H31.0095V3.77601H30.1878V3.41406H32.203V3.77601H31.3861V6.34877Z" fill="black" stroke="black" stroke-width="0.0978237" stroke-miterlimit="10"/>
<path d="M36.027 5.97665C35.8857 6.11805 35.7179 6.23021 35.5333 6.30671C35.3486 6.38325 35.1507 6.42263 34.9509 6.42263C34.751 6.42263 34.5531 6.38325 34.3685 6.30671C34.1839 6.23021 34.0161 6.11805 33.8748 5.97665C33.7325 5.83476 33.621 5.66518 33.5469 5.47838C33.4729 5.29164 33.438 5.09164 33.4444 4.89081C33.438 4.68999 33.4729 4.48999 33.5469 4.30321C33.621 4.11643 33.7325 3.94685 33.8748 3.80496C34.0131 3.6596 34.1802 3.54486 34.3656 3.4682C34.551 3.39152 34.7504 3.35462 34.9509 3.35987C35.1511 3.3567 35.3499 3.39455 35.5349 3.4711C35.72 3.54765 35.8875 3.66127 36.027 3.80496C36.1676 3.94803 36.2782 4.11782 36.3521 4.30432C36.426 4.49081 36.4618 4.69024 36.4574 4.89081C36.4638 5.09164 36.4289 5.29164 36.3549 5.47838C36.2808 5.66518 36.1692 5.83476 36.027 5.97665ZM34.1536 5.73209C34.2578 5.83769 34.382 5.92153 34.5188 5.97875C34.6557 6.03598 34.8025 6.06542 34.9509 6.06542C35.0992 6.06542 35.2461 6.03598 35.383 5.97875C35.5198 5.92153 35.644 5.83769 35.7482 5.73209C35.8565 5.62106 35.9414 5.48934 35.9977 5.34481C36.054 5.20027 36.0806 5.04586 36.0759 4.89081C36.078 4.73436 36.0483 4.57912 35.9887 4.43449C35.9289 4.28987 35.8405 4.15889 35.7286 4.04952C35.6244 3.94393 35.5003 3.86009 35.3634 3.80287C35.2266 3.74564 35.0797 3.71618 34.9313 3.71618C34.783 3.71618 34.6361 3.74564 34.4992 3.80287C34.3624 3.86009 34.2382 3.94393 34.1341 4.04952C34.0292 4.16214 33.948 4.29458 33.895 4.43905C33.8421 4.58352 33.8186 4.73712 33.8259 4.89081C33.8212 5.04586 33.8478 5.20027 33.9041 5.34481C33.9604 5.48934 34.0453 5.62106 34.1536 5.73209Z" fill="black" stroke="black" stroke-width="0.0978237" stroke-miterlimit="10"/>
<path d="M36.9886 6.34877V3.41406H37.4435L38.8717 5.69825V5.13087V3.41406H39.2483V6.34877H38.857L37.3652 3.95698V4.51947V6.34877H36.9886Z" fill="black" stroke="black" stroke-width="0.0978237" stroke-miterlimit="10"/>
<path d="M33.3489 10.6294C32.9368 10.6304 32.5342 10.7536 32.1921 10.9833C31.85 11.2131 31.5837 11.5391 31.4269 11.9202C31.2701 12.3013 31.2298 12.7204 31.3111 13.1244C31.3924 13.5284 31.5918 13.8992 31.8839 14.1899C32.176 14.4806 32.5477 14.6782 32.952 14.7576C33.3564 14.8371 33.7753 14.7949 34.1557 14.6362C34.536 14.4776 34.8608 14.2098 35.0889 13.8666C35.3171 13.5234 35.4384 13.1203 35.4374 12.7082C35.4414 12.4333 35.39 12.1604 35.2864 11.9057C35.1827 11.651 35.0288 11.4199 34.834 11.2259C34.6391 11.032 34.4072 10.8792 34.152 10.7767C33.8969 10.6742 33.6237 10.6241 33.3489 10.6294ZM33.3489 13.9701C33.0963 13.9878 32.8442 13.9291 32.6255 13.8016C32.4067 13.6741 32.2313 13.4837 32.1222 13.2553C32.013 13.0267 31.9751 12.7707 32.0134 12.5205C32.0517 12.2701 32.1644 12.0372 32.3369 11.8518C32.5093 11.6664 32.7336 11.5371 32.9805 11.4809C33.2273 11.4246 33.4854 11.444 33.7212 11.5363C33.9569 11.6287 34.1594 11.7898 34.3024 11.9988C34.4454 12.2078 34.5221 12.455 34.5227 12.7082C34.5306 12.8686 34.5063 13.029 34.4512 13.1799C34.3961 13.3308 34.3113 13.4691 34.2019 13.5867C34.0926 13.7044 33.9607 13.7989 33.8142 13.8647C33.6677 13.9305 33.5094 13.9664 33.3489 13.9701ZM28.7903 10.6294C28.3782 10.6304 27.9756 10.7536 27.6335 10.9833C27.2914 11.2131 27.0251 11.5391 26.8683 11.9202C26.7115 12.3013 26.6712 12.7204 26.7525 13.1244C26.8339 13.5284 27.0332 13.8992 27.3253 14.1899C27.6174 14.4806 27.9891 14.6782 28.3935 14.7576C28.7979 14.8371 29.2167 14.7949 29.5971 14.6362C29.9774 14.4776 30.3022 14.2098 30.5304 13.8666C30.7585 13.5234 30.8798 13.1203 30.8788 12.7082C30.8828 12.4333 30.8314 12.1604 30.7278 11.9057C30.6241 11.651 30.4703 11.4199 30.2754 11.2259C30.0805 11.032 29.8486 10.8792 29.5935 10.7767C29.3383 10.6742 29.0652 10.6241 28.7903 10.6294ZM28.7903 13.9701C28.5377 13.9878 28.2856 13.9291 28.0669 13.8016C27.8481 13.6741 27.6727 13.4837 27.5636 13.2553C27.4544 13.0267 27.4165 12.7707 27.4548 12.5205C27.4931 12.2701 27.6058 12.0372 27.7783 11.8518C27.9508 11.6664 28.175 11.5371 28.4219 11.4809C28.6687 11.4246 28.9268 11.444 29.1626 11.5363C29.3983 11.6287 29.6008 11.7898 29.7438 11.9988C29.8868 12.2078 29.9635 12.455 29.9642 12.7082C29.972 12.8686 29.9477 13.029 29.8926 13.1799C29.8375 13.3308 29.7528 13.4691 29.6433 13.5867C29.534 13.7044 29.4021 13.7989 29.2556 13.8647C29.1091 13.9305 28.9509 13.9664 28.7903 13.9701ZM23.3708 11.2702V12.1506H25.4838C25.4507 12.5653 25.2783 12.9566 24.9947 13.2609C24.7828 13.4768 24.5279 13.6459 24.2464 13.7571C23.965 13.8683 23.6634 13.9192 23.3611 13.9065C22.7384 13.9065 22.1413 13.6592 21.7009 13.2189C21.2606 12.7786 21.0133 12.1814 21.0133 11.5588C21.0133 10.9361 21.2606 10.3389 21.7009 9.89864C22.1413 9.45833 22.7384 9.21098 23.3611 9.21098C23.958 9.20213 24.5344 9.42879 24.9654 9.84195L25.5866 9.22077C25.295 8.93243 24.9489 8.70519 24.5685 8.55234C24.188 8.39949 23.7808 8.32407 23.3708 8.33057C22.936 8.31365 22.5023 8.38467 22.0955 8.53942C21.6888 8.69413 21.3175 8.9294 21.0039 9.23104C20.6902 9.53273 20.4407 9.89458 20.2703 10.295C20.0999 10.6954 20.012 11.126 20.012 11.5612C20.012 11.9964 20.0999 12.427 20.2703 12.8274C20.4407 13.2278 20.6902 13.5897 21.0039 13.8914C21.3175 14.193 21.6888 14.4283 22.0955 14.583C22.5023 14.7377 22.936 14.8087 23.3708 14.7918C23.7892 14.8086 24.2065 14.7366 24.5951 14.5806C24.9837 14.4246 25.3349 14.1883 25.6257 13.887C26.1393 13.3227 26.413 12.5806 26.3887 11.818C26.3905 11.6344 26.3757 11.4511 26.3447 11.2702H23.3708ZM45.5328 11.9549C45.4052 11.5797 45.1667 11.252 44.8488 11.0153C44.5308 10.7786 44.1485 10.644 43.7524 10.6294C43.4849 10.6289 43.22 10.6833 42.9743 10.7892C42.7286 10.895 42.5073 11.0502 42.3239 11.245C42.1405 11.4398 41.9991 11.6702 41.9082 11.9219C41.8175 12.1735 41.7792 12.4412 41.7959 12.7082C41.7918 13.1547 41.9321 13.5905 42.1961 13.9507C42.4601 14.3108 42.8335 14.5759 43.2605 14.7063C43.6875 14.8367 44.1453 14.8255 44.5654 14.6743C44.9856 14.5231 45.3455 14.24 45.5915 13.8674L44.8823 13.3783C44.7765 13.5545 44.6266 13.7 44.4473 13.8004C44.2679 13.9008 44.0655 13.9525 43.86 13.9505C43.648 13.9593 43.4383 13.9037 43.2585 13.7911C43.0787 13.6785 42.9371 13.5141 42.8524 13.3196L45.6355 12.1702L45.5328 11.9549ZM42.6959 12.6495C42.686 12.4978 42.7065 12.3457 42.7563 12.202C42.8061 12.0584 42.8841 11.9262 42.9857 11.8132C43.0874 11.7002 43.2106 11.6086 43.3481 11.5439C43.4856 11.4792 43.6348 11.4427 43.7866 11.4365C43.9437 11.4264 44.1003 11.4628 44.2368 11.5411C44.3733 11.6194 44.4839 11.7361 44.5546 11.8767L42.6959 12.6495ZM40.4362 14.6647H41.3508V8.55067H40.4362V14.6647ZM38.9395 11.0941H38.9052C38.7664 10.943 38.5968 10.8233 38.4078 10.7431C38.2188 10.663 38.0148 10.6242 37.8096 10.6294C37.2751 10.6554 36.771 10.8859 36.4019 11.2734C36.0328 11.6609 35.8269 12.1755 35.8269 12.7106C35.8269 13.2458 36.0328 13.7604 36.4019 14.1479C36.771 14.5353 37.2751 14.7659 37.8096 14.7918C38.017 14.796 38.2227 14.7543 38.4121 14.6697C38.6015 14.5852 38.7699 14.4599 38.9052 14.3027H38.9395V14.6011C38.9395 15.3983 38.514 15.8239 37.8292 15.8239C37.6004 15.8188 37.3783 15.7459 37.1911 15.6145C37.0038 15.4829 36.8599 15.2988 36.7776 15.0853L35.9852 15.413C36.1317 15.781 36.3864 16.0958 36.7157 16.3159C37.0449 16.5359 37.4332 16.6509 37.8292 16.6456C38.9004 16.6456 39.7857 16.0146 39.7857 14.4788V10.7517H38.9395V11.0941ZM37.8879 13.9701C37.5674 13.9501 37.2666 13.8087 37.0467 13.5748C36.8269 13.3408 36.7045 13.0317 36.7045 12.7106C36.7045 12.3896 36.8269 12.0805 37.0467 11.8465C37.2666 11.6125 37.5674 11.4712 37.8879 11.4511C38.0445 11.4579 38.1982 11.4961 38.3398 11.5635C38.4813 11.6308 38.6079 11.726 38.7119 11.8433C38.816 11.9606 38.8954 12.0976 38.9454 12.2462C38.9954 12.3948 39.015 12.5519 39.0031 12.7082C39.0164 12.865 38.9978 13.023 38.9484 13.1725C38.8989 13.3219 38.8197 13.4598 38.7155 13.5777C38.6112 13.6957 38.4841 13.7913 38.3419 13.8587C38.1996 13.9262 38.0452 13.9641 37.8879 13.9701ZM49.8174 8.55067H47.6262V14.6647H48.5409V12.3462H49.8174C50.0781 12.365 50.3398 12.3298 50.5863 12.2429C50.8328 12.156 51.0588 12.0193 51.2501 11.8412C51.4413 11.6632 51.5939 11.4476 51.6981 11.208C51.8028 10.9683 51.8566 10.7098 51.8566 10.4485C51.8566 10.1871 51.8028 9.92857 51.6981 9.68895C51.5939 9.44933 51.4413 9.23378 51.2501 9.05569C51.0588 8.87765 50.8328 8.74089 50.5863 8.65403C50.3398 8.56716 50.0781 8.53194 49.8174 8.55067ZM49.8174 11.4854H48.5409V9.40174H49.837C50.1148 9.40174 50.3809 9.51204 50.577 9.70832C50.7736 9.9046 50.8837 10.1709 50.8837 10.4485C50.8837 10.7261 50.7736 10.9923 50.577 11.1886C50.3809 11.3849 50.1148 11.4952 49.837 11.4952L49.8174 11.4854ZM55.4618 10.6099C55.1288 10.5893 54.7971 10.6669 54.5076 10.8329C54.218 10.999 53.9837 11.2462 53.8331 11.5441L54.6401 11.8816C54.7218 11.7345 54.8441 11.6143 54.9923 11.5353C55.141 11.4563 55.3092 11.422 55.4765 11.4365C55.5924 11.4229 55.7103 11.4326 55.8228 11.465C55.9348 11.4974 56.0395 11.5519 56.131 11.6251C56.2219 11.6984 56.2973 11.7891 56.353 11.8919C56.4088 11.9948 56.443 12.1076 56.4548 12.224V12.2826C56.1608 12.128 55.8331 12.0475 55.501 12.0479C54.6303 12.0479 53.7402 12.537 53.7402 13.4272C53.749 13.6164 53.7954 13.8019 53.8771 13.9728C53.9588 14.1437 54.0742 14.2964 54.2161 14.4219C54.3579 14.5474 54.5237 14.643 54.7032 14.7032C54.8827 14.7634 55.0725 14.7869 55.2613 14.7723C55.4907 14.785 55.7196 14.7364 55.9241 14.6315C56.129 14.5267 56.3017 14.3693 56.4254 14.1755H56.4548V14.6647H57.3352V12.312C57.3352 11.2408 56.5232 10.6196 55.4814 10.6196L55.4618 10.6099ZM55.3494 13.9603C55.051 13.9603 54.6352 13.8087 54.6352 13.4419C54.6352 12.9527 55.1537 12.7864 55.6135 12.7864C55.904 12.7793 56.1911 12.8502 56.445 12.9919C56.4142 13.2575 56.2885 13.503 56.0904 13.6828C55.8928 13.8627 55.6365 13.9648 55.3689 13.9701L55.3494 13.9603ZM60.5438 10.7517L59.4971 13.4027H59.4677L58.3819 10.7517H57.4036L59.0324 14.4592L58.1031 16.5184H59.0813L61.5612 10.7517H60.5438ZM52.3266 14.6647H53.2364V8.55067H52.3266V14.6647Z" fill="black"/>
<path d="M5.12813 3.68268C4.97225 3.87542 4.89531 4.12016 4.91294 4.36744V15.1868C4.89629 15.4364 4.9789 15.6825 5.1428 15.8715L5.17704 15.9106L11.2225 9.85047V9.70374L5.16237 3.64844L5.12813 3.68268Z" fill="url(#paint0_linear_0_2473)"/>
<path d="M13.2283 11.8744L11.223 9.85429V9.70756L13.2283 7.6875L13.2724 7.71685L15.6739 9.0766C16.3587 9.463 16.3587 10.0989 15.6739 10.4901L13.2821 11.8499L13.2283 11.8744Z" fill="url(#paint1_linear_0_2473)"/>
<path d="M13.2877 11.8424L11.2236 9.77344L5.12921 15.8679C5.26744 15.9909 5.44435 16.0616 5.62929 16.0679C5.81422 16.0742 5.99549 16.0155 6.14169 15.9021L13.2877 11.8424Z" fill="url(#paint2_linear_0_2473)"/>
<path d="M13.2877 7.71411L6.14169 3.65442C5.99647 3.53943 5.8153 3.47934 5.63012 3.48471C5.44494 3.49007 5.26758 3.56056 5.12921 3.68376L11.2236 9.77819L13.2877 7.71411Z" fill="url(#paint3_linear_0_2473)"/>
<path opacity="0.2" d="M13.229 11.7969L6.14169 15.8321C6.00082 15.9384 5.82909 15.996 5.65257 15.996C5.47609 15.996 5.30436 15.9384 5.16345 15.8321L5.12921 15.8663L5.16345 15.9055C5.30436 16.0118 5.47609 16.0693 5.65257 16.0693C5.82909 16.0693 6.00082 16.0118 6.14169 15.9055L13.2877 11.8458L13.229 11.7969Z" fill="white"/>
<path opacity="0.12" d="M5.12849 15.799C4.97138 15.605 4.89438 15.3583 4.91327 15.1094V15.1827C4.89662 15.4324 4.97926 15.6785 5.14316 15.8675L5.1774 15.8333L5.12849 15.799Z" fill="white"/>
<path opacity="0.12" d="M15.6744 10.4093L13.2288 11.7935L13.2728 11.8424L15.6744 10.4778C15.8162 10.4178 15.9392 10.3208 16.0304 10.1968C16.1216 10.0729 16.1778 9.92663 16.1929 9.77344C16.1623 9.91264 16.0995 10.0427 16.0094 10.1531C15.9193 10.2636 15.8046 10.3513 15.6744 10.4093Z" fill="white"/>
<path opacity="0.25" d="M6.1401 3.71931L15.673 9.13875C15.8032 9.19671 15.9179 9.28446 16.008 9.39491C16.0981 9.50535 16.1609 9.6354 16.1915 9.77461C16.1764 9.62142 16.1202 9.47517 16.029 9.35123C15.9378 9.22728 15.8148 9.13019 15.673 9.07028L6.1401 3.65084C5.46023 3.25954 4.91241 3.58236 4.91241 4.36495V4.43832C4.91241 3.65573 5.46023 3.33291 6.1401 3.71931Z" fill="black"/>
</g>
<defs>
<linearGradient id="paint0_linear_0_2473" x1="10.6845" y1="4.25494" x2="2.47712" y2="12.4624" gradientUnits="userSpaceOnUse">
<stop stop-color="#00A0FF"/>
<stop offset="0.01" stop-color="#00A1FF"/>
<stop offset="0.26" stop-color="#00BEFF"/>
<stop offset="0.51" stop-color="#00D2FF"/>
<stop offset="0.76" stop-color="#00DFFF"/>
<stop offset="1" stop-color="#00E3FF"/>
</linearGradient>
<linearGradient id="paint1_linear_0_2473" x1="16.569" y1="9.78093" x2="4.73725" y2="9.78093" gradientUnits="userSpaceOnUse">
<stop stop-color="#FFE000"/>
<stop offset="0.41" stop-color="#FFBD00"/>
<stop offset="0.78" stop-color="#FFA500"/>
<stop offset="1" stop-color="#FF9C00"/>
</linearGradient>
<linearGradient id="paint2_linear_0_2473" x1="12.1676" y1="10.8984" x2="1.03531" y2="22.0259" gradientUnits="userSpaceOnUse">
<stop stop-color="#FF3A44"/>
<stop offset="1" stop-color="#C31162"/>
</linearGradient>
<linearGradient id="paint3_linear_0_2473" x1="3.5934" y1="0.083851" x2="8.56282" y2="5.05331" gradientUnits="userSpaceOnUse">
<stop stop-color="#32A071"/>
<stop offset="0.07" stop-color="#2DA771"/>
<stop offset="0.48" stop-color="#15CF74"/>
<stop offset="0.8" stop-color="#06E775"/>
<stop offset="1" stop-color="#00F076"/>
</linearGradient>
<clipPath id="clip0_0_2473">
<rect width="66.031" height="19.5647" fill="white" transform="translate(0.0217896)"/>
</clipPath>
</defs>
</svg>
