<svg width="846" height="846" viewBox="0 0 846 846" fill="none" xmlns="http://www.w3.org/2000/svg">
<path d="M562.407 -160.306V66.5963C562.407 83.7334 548.515 97.6258 531.378 97.6258H312.232C295.095 97.6258 281.203 111.518 281.203 128.655V347.801C281.203 364.938 267.31 378.83 250.173 378.83H31.028C13.8909 378.83 -0.00146616 392.722 -0.00146616 409.859V629.005C-0.00146616 646.142 -13.8938 660.034 -31.0309 660.034H-250.176C-267.313 660.034 -281.206 673.927 -281.206 691.064V910.209C-281.206 927.346 -295.098 941.238 -312.235 941.238H-539.138M843.611 -160.306V66.5963C843.611 83.7334 829.719 97.6258 812.582 97.6258H593.436C576.299 97.6258 562.407 111.518 562.407 128.655V347.801C562.407 364.938 548.515 378.83 531.378 378.83H312.232C295.095 378.83 281.203 392.722 281.203 409.859V629.005C281.203 646.142 295.095 660.034 312.232 660.034H531.378C548.515 660.034 562.407 646.142 562.407 629.005V405.981L562.679 404.148C564.761 390.094 576.69 379.6 590.895 379.326L616.709 378.83H812.582C829.719 378.83 843.611 392.722 843.611 409.859V629.005C843.611 646.142 829.719 660.034 812.582 660.034H591.497L584.131 660.525C571.906 661.34 562.407 671.494 562.407 683.746V707.548M562.407 683.306V910.209C562.407 927.346 548.515 941.238 531.378 941.238H312.232C295.095 941.238 281.203 955.131 281.203 972.268V1191.41C281.203 1208.55 267.31 1222.44 250.173 1222.44H31.028C13.8909 1222.44 -0.00146616 1236.34 -0.00146616 1253.47V1472.62C-0.00146616 1489.75 -13.8938 1503.65 -31.0309 1503.65H-250.176C-267.313 1503.65 -281.206 1517.54 -281.206 1534.68V1753.82C-281.206 1770.96 -295.098 1784.85 -312.235 1784.85H-539.138" stroke="#2566ED" stroke-opacity="0.13" stroke-width="2.90901"/>
</svg>
